<svg xmlns="http://www.w3.org/2000/svg" width="390" height="844" viewBox="0 0 390 844"><rect x="0" y="0" width="390" height="844" rx="24" fill="#101713" stroke="none" stroke-width="1.5"/><text x="24" y="56" fill="#F8F8F6" font-family="SF Pro, Noto Sans JP, sans-serif" font-size="30" font-weight="400" text-anchor="start">×</text><text x="195" y="54" fill="#F8F8F6" font-family="SF Pro, Noto Sans JP, sans-serif" font-size="23" font-weight="700" text-anchor="middle">Match pairs</text><rect x="24" y="90" width="291" height="8" rx="4" fill="#314B3E" stroke="none" stroke-width="1.5"/><rect x="24" y="90" width="30" height="8" rx="4" fill="#9FD6B4" stroke="none" stroke-width="1.5"/><text x="366" y="100" fill="#F8F8F6" font-family="SF Pro, Noto Sans JP, sans-serif" font-size="14" font-weight="400" text-anchor="end">1 / 10</text><rect x="143" y="820" width="104" height="4" rx="2" fill="#567563" stroke="none" stroke-width="1.5"/><text x="24" y="147" fill="#F8F8F6" font-family="SF Pro, Noto Sans JP, sans-serif" font-size="18" font-weight="400" text-anchor="start">Match each word with its reading.</text><rect x="24" y="174" width="342" height="42" rx="12" fill="#19211D" stroke="none" stroke-width="1.5"/><rect x="28" y="178" width="167" height="34" rx="9" fill="#9FD6B4" stroke="none" stroke-width="1.5"/><text x="111" y="200" fill="#183323" font-family="SF Pro, Noto Sans JP, sans-serif" font-size="14" font-weight="600" text-anchor="middle">Readings</text><text x="280" y="200" fill="#8BAD97" font-family="SF Pro, Noto Sans JP, sans-serif" font-size="14" font-weight="400" text-anchor="middle">Meanings</text><text x="24" y="252" fill="#FF8E78" font-family="SF Pro, Noto Sans JP, sans-serif" font-size="12" font-weight="700" text-anchor="start">KANJI</text><text x="207" y="252" fill="#82D5EF" font-family="SF Pro, Noto Sans JP, sans-serif" font-size="12" font-weight="700" text-anchor="start">READING</text><rect x="24" y="270" width="159" height="72" rx="12" fill="#192B21" stroke="#9FD6B4" stroke-width="1.5"/><text x="103.5" y="310" fill="#9FD6B4" font-family="SF Pro, Noto Sans JP, sans-serif" font-size="22" font-weight="600" text-anchor="middle">学校</text><rect x="207" y="270" width="159" height="72" rx="12" fill="#181818" stroke="#5B565E" stroke-width="1.5"/><text x="286.5" y="310" fill="#F8F8F6" font-family="SF Pro, Noto Sans JP, sans-serif" font-size="22" font-weight="600" text-anchor="middle">にちようび</text><rect x="24" y="358" width="159" height="72" rx="12" fill="#181818" stroke="#FF8E78" stroke-width="1.5"/><text x="103.5" y="398" fill="#F8F8F6" font-family="SF Pro, Noto Sans JP, sans-serif" font-size="22" font-weight="600" text-anchor="middle">勉強</text><rect x="207" y="358" width="159" height="72" rx="12" fill="#181818" stroke="#5B565E" stroke-width="1.5"/><text x="286.5" y="398" fill="#F8F8F6" font-family="SF Pro, Noto Sans JP, sans-serif" font-size="22" font-weight="600" text-anchor="middle">でんしゃ</text><rect x="24" y="446" width="159" height="72" rx="12" fill="#181818" stroke="#5B565E" stroke-width="1.5"/><text x="103.5" y="486" fill="#F8F8F6" font-family="SF Pro, Noto Sans JP, sans-serif" font-size="22" font-weight="600" text-anchor="middle">日曜日</text><rect x="207" y="446" width="159" height="72" rx="12" fill="#192B21" stroke="#9FD6B4" stroke-width="1.5"/><text x="286.5" y="486" fill="#9FD6B4" font-family="SF Pro, Noto Sans JP, sans-serif" font-size="22" font-weight="600" text-anchor="middle">がっこう</text><rect x="24" y="534" width="159" height="72" rx="12" fill="#181818" stroke="#5B565E" stroke-width="1.5"/><text x="103.5" y="574" fill="#F8F8F6" font-family="SF Pro, Noto Sans JP, sans-serif" font-size="22" font-weight="600" text-anchor="middle">電車</text><rect x="207" y="534" width="159" height="72" rx="12" fill="#181818" stroke="#5B565E" stroke-width="1.5"/><text x="286.5" y="574" fill="#F8F8F6" font-family="SF Pro, Noto Sans JP, sans-serif" font-size="22" font-weight="600" text-anchor="middle">べんきょう</text><text x="195" y="659" fill="#9FD6B4" font-family="SF Pro, Noto Sans JP, sans-serif" font-size="15" font-weight="600" text-anchor="middle">1 / 4 pairs matched</text><text x="195" y="690" fill="#8BAD97" font-family="SF Pro, Noto Sans JP, sans-serif" font-size="14" font-weight="400" text-anchor="middle">Choose a word, then its reading.</text><rect x="24" y="734" width="342" height="56" rx="12" fill="#29332D" stroke="none" stroke-width="1.5"/><text x="195" y="769" fill="#7C877F" font-family="SF Pro, Noto Sans JP, sans-serif" font-size="18" font-weight="600" text-anchor="middle">Match all pairs to continue</text></svg>